<?xml version="1.0" encoding="utf-8"?>
<svg version="1.1" id="Layer_1" xmlns="http://www.w3.org/2000/svg" xmlns:xlink="http://www.w3.org/1999/xlink" x="0px" y="0px"
	 viewBox="0 0 1080 292" style="enable-background:new 0 0 1080 292;" xml:space="preserve">
<g>
	<path d="M106.6,3.2h38.2l43.3,114.9h-33L146.8,93h-42.7l-8.5,25.1H63.3L106.6,3.2z M138.5,68.2l-8.7-25.8
		c-1.8-5.7-3.3-10.2-4.3-14.4c-1,4.3-2.6,8.7-4.4,14.6l-8.7,25.6H138.5z"/>
	<path d="M238.6,28.8h-36.3V3.2h102.9v25.6h-36.1v89.3h-30.5V28.8z"/>
	<path d="M303.3,60.6c0-38.2,25-60.6,58.6-60.6s59.6,23.1,59.6,60.6c0,38.2-25.9,60.6-59.6,60.6S303.3,99.5,303.3,60.6z M361.9,95.6
		c16.3,0,27.7-12,27.7-35c0-22.7-11.5-35-27.7-35S335,38,335,60.6C335,83.5,345.6,95.6,361.9,95.6z"/>
	<path d="M431,71.8V3.2h30.5v64c0,18.9,5.6,28.1,19.5,28.1s19.7-9.4,19.7-28.1v-64h30.5v68.6c0,31.4-18.2,49.4-50.4,49.4
		C448.4,121.2,431,103.2,431,71.8z"/>
	<path d="M540.8,60.1c0-38.1,25.9-60.1,59.4-60.1c29.9,0,51.9,16.7,54.3,46.9h-31.4c-1.5-12.8-9.2-21.7-23.1-21.7
		c-15.6,0-27.6,11.8-27.6,34.8c0,22.7,10.8,35.8,26.9,35.8c13.6,0,23-9,24.5-23.6h31.2c-2.1,28.2-22.3,48.9-56.8,48.9
		C563.3,121.2,540.8,98.4,540.8,60.1z"/>
	<path d="M664.3,3.2h30.5v44H736v-44h30.5v114.9H736V72.8h-41.2v45.3h-30.5V3.2z"/>
	<path d="M804.6,60.6c0-38.2,25-60.6,58.6-60.6c33.7,0,59.6,23.1,59.6,60.6c0,38.2-25.9,60.6-59.6,60.6
		C829.6,121.2,804.6,99.5,804.6,60.6z M863.2,95.6c16.3,0,27.7-12,27.7-35c0-22.7-11.5-35-27.7-35s-26.9,12.3-26.9,35
		C836.3,83.5,847,95.6,863.2,95.6z"/>
	<path d="M933.5,3.2h85v25.6H964v21.8h51.1v25.6H964v41.9h-30.5V3.2z"/>
	<path d="M36.3,199.5H0v-25.6h102.9v25.6H66.8v89.3H36.3V199.5z"/>
	<path d="M110,173.9h84.9v25.6h-54.3v18.7h51.7v25h-51.7v20h57v25.6H110V173.9z"/>
	<path d="M209,173.9h43.5l36,73.4c-0.7-5.4-0.8-10.5-0.8-16.6l-0.2-56.8h29.7v114.9h-37.6l-41.9-84.9c0.7,5.6,0.7,9.8,0.7,16.4
		l0.3,68.5H209V173.9z"/>
	<path d="M332.9,173.9h44.7c39.9,0,63,19.2,63,57.6c0,34-21.5,57.3-63.4,57.3h-44.3V173.9z M374.8,263.2c19.5,0,34-8.5,34-31.7
		c0-20.4-10.5-32-33.2-32h-12.1v63.7H374.8z"/>
	<path d="M451.1,173.9H536v25.6h-54.3v18.7h51.7v25h-51.7v20h57v25.6h-87.5V173.9z"/>
	<path d="M550.1,173.9h55.2c22.5,0,39.6,9.7,39.6,31.2c0,16.1-11,25.1-22.7,28.4c14.3,2.3,20.5,11.3,20.5,25.8v29.5H612v-26.9
		c0-11.3-4.9-15.3-16.3-15.3H580v42.2h-29.9V173.9z M598.7,222.2c9.4,0,15.3-3.3,15.3-11.8c0-8.4-5.9-11.5-15.3-11.5H580v23.3H598.7
		z"/>
	<path d="M656.3,173.9h43.5l36,73.4c-0.7-5.4-0.8-10.5-0.8-16.6l-0.2-56.8h29.7v114.9h-37.6L685,203.9c0.7,5.6,0.7,9.8,0.7,16.4
		l0.3,68.5h-29.7V173.9z"/>
	<path d="M780.2,173.9h84.9v25.6h-54.3v18.7h51.7v25h-51.7v20h57v25.6h-87.5V173.9z"/>
	<path d="M872.7,248.6h31.7c0.8,12.1,10,18.4,22.2,18.4c9.4,0,17.1-3.6,17.1-11.5c0-5.9-4.4-9-13.1-10.7l-19.5-3.6
		c-19-3.4-34.6-13.1-34.6-33.5c0-22.5,20.4-36.9,47.4-36.9c31.4,0,47.9,16.1,49.4,39.2h-31.7c-0.7-8.4-6.2-14.9-18.7-14.9
		c-9.2,0-16.1,3.8-16.1,10.5c0,6.1,5.4,8.2,14.8,9.8l18.1,3.1c18.4,3,34.6,12.5,34.6,34.3c0,21.8-16.1,39.1-48.6,39.1
		C894.7,291.9,874,275.9,872.7,248.6z"/>
	<path d="M978.5,248.6h31.7c0.8,12.1,10,18.4,22.2,18.4c9.4,0,17.1-3.6,17.1-11.5c0-5.9-4.4-9-13.1-10.7l-19.5-3.6
		c-19-3.4-34.6-13.1-34.6-33.5c0-22.5,20.4-36.9,47.4-36.9c31.4,0,47.9,16.1,49.4,39.2h-31.7c-0.7-8.4-6.2-14.9-18.7-14.9
		c-9.2,0-16.1,3.8-16.1,10.5c0,6.1,5.4,8.2,14.8,9.8l18.1,3.1c18.4,3,34.6,12.5,34.6,34.3c0,21.8-16.1,39.1-48.6,39.1
		C1000.5,291.9,979.9,275.9,978.5,248.6z"/>
</g>
</svg>
